<svg aria-roledescription="mindmap" role="graphics-document document" viewBox="5 5 1219.7042236328125 650.7227783203125" style="max-width: 1219.7px; background-color: white;" xmlns:xlink="http://www.w3.org/1999/xlink" xmlns="http://www.w3.org/2000/svg" width="100%" id="my-svg"><style>#my-svg{font-family:"trebuchet ms",verdana,arial,sans-serif;font-size:16px;fill:#333;}#my-svg .error-icon{fill:#552222;}#my-svg .error-text{fill:#552222;stroke:#552222;}#my-svg .edge-thickness-normal{stroke-width:2px;}#my-svg .edge-thickness-thick{stroke-width:3.5px;}#my-svg .edge-pattern-solid{stroke-dasharray:0;}#my-svg .edge-pattern-dashed{stroke-dasharray:3;}#my-svg .edge-pattern-dotted{stroke-dasharray:2;}#my-svg .marker{fill:#333333;stroke:#333333;}#my-svg .marker.cross{stroke:#333333;}#my-svg svg{font-family:"trebuchet ms",verdana,arial,sans-serif;font-size:16px;}#my-svg .edge{stroke-width:3;}#my-svg .section--1 rect,#my-svg .section--1 path,#my-svg .section--1 circle,#my-svg .section--1 polygon,#my-svg .section--1 path{fill:hsl(240, 100%, 76.2745098039%);}#my-svg .section--1 text{fill:#ffffff;}#my-svg .node-icon--1{font-size:40px;color:#ffffff;}#my-svg .section-edge--1{stroke:hsl(240, 100%, 76.2745098039%);}#my-svg .edge-depth--1{stroke-width:17;}#my-svg .section--1 line{stroke:hsl(60, 100%, 86.2745098039%);stroke-width:3;}#my-svg .disabled,#my-svg .disabled circle,#my-svg .disabled text{fill:lightgray;}#my-svg .disabled text{fill:#efefef;}#my-svg .section-0 rect,#my-svg .section-0 path,#my-svg .section-0 circle,#my-svg .section-0 polygon,#my-svg .section-0 path{fill:hsl(60, 100%, 73.5294117647%);}#my-svg .section-0 text{fill:black;}#my-svg .node-icon-0{font-size:40px;color:black;}#my-svg .section-edge-0{stroke:hsl(60, 100%, 73.5294117647%);}#my-svg .edge-depth-0{stroke-width:14;}#my-svg .section-0 line{stroke:hsl(240, 100%, 83.5294117647%);stroke-width:3;}#my-svg .disabled,#my-svg .disabled circle,#my-svg .disabled text{fill:lightgray;}#my-svg .disabled text{fill:#efefef;}#my-svg .section-1 rect,#my-svg .section-1 path,#my-svg .section-1 circle,#my-svg .section-1 polygon,#my-svg .section-1 path{fill:hsl(80, 100%, 76.2745098039%);}#my-svg .section-1 text{fill:black;}#my-svg .node-icon-1{font-size:40px;color:black;}#my-svg .section-edge-1{stroke:hsl(80, 100%, 76.2745098039%);}#my-svg .edge-depth-1{stroke-width:11;}#my-svg .section-1 line{stroke:hsl(260, 100%, 86.2745098039%);stroke-width:3;}#my-svg .disabled,#my-svg .disabled circle,#my-svg .disabled text{fill:lightgray;}#my-svg .disabled text{fill:#efefef;}#my-svg .section-2 rect,#my-svg .section-2 path,#my-svg .section-2 circle,#my-svg .section-2 polygon,#my-svg .section-2 path{fill:hsl(270, 100%, 76.2745098039%);}#my-svg .section-2 text{fill:#ffffff;}#my-svg .node-icon-2{font-size:40px;color:#ffffff;}#my-svg .section-edge-2{stroke:hsl(270, 100%, 76.2745098039%);}#my-svg .edge-depth-2{stroke-width:8;}#my-svg .section-2 line{stroke:hsl(90, 100%, 86.2745098039%);stroke-width:3;}#my-svg .disabled,#my-svg .disabled circle,#my-svg .disabled text{fill:lightgray;}#my-svg .disabled text{fill:#efefef;}#my-svg .section-3 rect,#my-svg .section-3 path,#my-svg .section-3 circle,#my-svg .section-3 polygon,#my-svg .section-3 path{fill:hsl(300, 100%, 76.2745098039%);}#my-svg .section-3 text{fill:black;}#my-svg .node-icon-3{font-size:40px;color:black;}#my-svg .section-edge-3{stroke:hsl(300, 100%, 76.2745098039%);}#my-svg .edge-depth-3{stroke-width:5;}#my-svg .section-3 line{stroke:hsl(120, 100%, 86.2745098039%);stroke-width:3;}#my-svg .disabled,#my-svg .disabled circle,#my-svg .disabled text{fill:lightgray;}#my-svg .disabled text{fill:#efefef;}#my-svg .section-4 rect,#my-svg .section-4 path,#my-svg .section-4 circle,#my-svg .section-4 polygon,#my-svg .section-4 path{fill:hsl(330, 100%, 76.2745098039%);}#my-svg .section-4 text{fill:black;}#my-svg .node-icon-4{font-size:40px;color:black;}#my-svg .section-edge-4{stroke:hsl(330, 100%, 76.2745098039%);}#my-svg .edge-depth-4{stroke-width:2;}#my-svg .section-4 line{stroke:hsl(150, 100%, 86.2745098039%);stroke-width:3;}#my-svg .disabled,#my-svg .disabled circle,#my-svg .disabled text{fill:lightgray;}#my-svg .disabled text{fill:#efefef;}#my-svg .section-5 rect,#my-svg .section-5 path,#my-svg .section-5 circle,#my-svg .section-5 polygon,#my-svg .section-5 path{fill:hsl(0, 100%, 76.2745098039%);}#my-svg .section-5 text{fill:black;}#my-svg .node-icon-5{font-size:40px;color:black;}#my-svg .section-edge-5{stroke:hsl(0, 100%, 76.2745098039%);}#my-svg .edge-depth-5{stroke-width:-1;}#my-svg .section-5 line{stroke:hsl(180, 100%, 86.2745098039%);stroke-width:3;}#my-svg .disabled,#my-svg .disabled circle,#my-svg .disabled text{fill:lightgray;}#my-svg .disabled text{fill:#efefef;}#my-svg .section-6 rect,#my-svg .section-6 path,#my-svg .section-6 circle,#my-svg .section-6 polygon,#my-svg .section-6 path{fill:hsl(30, 100%, 76.2745098039%);}#my-svg .section-6 text{fill:black;}#my-svg .node-icon-6{font-size:40px;color:black;}#my-svg .section-edge-6{stroke:hsl(30, 100%, 76.2745098039%);}#my-svg .edge-depth-6{stroke-width:-4;}#my-svg .section-6 line{stroke:hsl(210, 100%, 86.2745098039%);stroke-width:3;}#my-svg .disabled,#my-svg .disabled circle,#my-svg .disabled text{fill:lightgray;}#my-svg .disabled text{fill:#efefef;}#my-svg .section-7 rect,#my-svg .section-7 path,#my-svg .section-7 circle,#my-svg .section-7 polygon,#my-svg .section-7 path{fill:hsl(90, 100%, 76.2745098039%);}#my-svg .section-7 text{fill:black;}#my-svg .node-icon-7{font-size:40px;color:black;}#my-svg .section-edge-7{stroke:hsl(90, 100%, 76.2745098039%);}#my-svg .edge-depth-7{stroke-width:-7;}#my-svg .section-7 line{stroke:hsl(270, 100%, 86.2745098039%);stroke-width:3;}#my-svg .disabled,#my-svg .disabled circle,#my-svg .disabled text{fill:lightgray;}#my-svg .disabled text{fill:#efefef;}#my-svg .section-8 rect,#my-svg .section-8 path,#my-svg .section-8 circle,#my-svg .section-8 polygon,#my-svg .section-8 path{fill:hsl(150, 100%, 76.2745098039%);}#my-svg .section-8 text{fill:black;}#my-svg .node-icon-8{font-size:40px;color:black;}#my-svg .section-edge-8{stroke:hsl(150, 100%, 76.2745098039%);}#my-svg .edge-depth-8{stroke-width:-10;}#my-svg .section-8 line{stroke:hsl(330, 100%, 86.2745098039%);stroke-width:3;}#my-svg .disabled,#my-svg .disabled circle,#my-svg .disabled text{fill:lightgray;}#my-svg .disabled text{fill:#efefef;}#my-svg .section-9 rect,#my-svg .section-9 path,#my-svg .section-9 circle,#my-svg .section-9 polygon,#my-svg .section-9 path{fill:hsl(180, 100%, 76.2745098039%);}#my-svg .section-9 text{fill:black;}#my-svg .node-icon-9{font-size:40px;color:black;}#my-svg .section-edge-9{stroke:hsl(180, 100%, 76.2745098039%);}#my-svg .edge-depth-9{stroke-width:-13;}#my-svg .section-9 line{stroke:hsl(0, 100%, 86.2745098039%);stroke-width:3;}#my-svg .disabled,#my-svg .disabled circle,#my-svg .disabled text{fill:lightgray;}#my-svg .disabled text{fill:#efefef;}#my-svg .section-10 rect,#my-svg .section-10 path,#my-svg .section-10 circle,#my-svg .section-10 polygon,#my-svg .section-10 path{fill:hsl(210, 100%, 76.2745098039%);}#my-svg .section-10 text{fill:black;}#my-svg .node-icon-10{font-size:40px;color:black;}#my-svg .section-edge-10{stroke:hsl(210, 100%, 76.2745098039%);}#my-svg .edge-depth-10{stroke-width:-16;}#my-svg .section-10 line{stroke:hsl(30, 100%, 86.2745098039%);stroke-width:3;}#my-svg .disabled,#my-svg .disabled circle,#my-svg .disabled text{fill:lightgray;}#my-svg .disabled text{fill:#efefef;}#my-svg .section-root rect,#my-svg .section-root path,#my-svg .section-root circle,#my-svg .section-root polygon{fill:hsl(240, 100%, 46.2745098039%);}#my-svg .section-root text{fill:#ffffff;}#my-svg .icon-container{height:100%;display:flex;justify-content:center;align-items:center;}#my-svg .edge{fill:none;}#my-svg .mindmap-node-label{dy:1em;alignment-baseline:middle;text-anchor:middle;dominant-baseline:middle;text-align:center;}#my-svg :root{--mermaid-font-family:"trebuchet ms",verdana,arial,sans-serif;}</style><g/><g class="mindmap-edges"><path class="edge section-edge-0 edge-depth-2" d="M 987.9009476518928,353.138947565267 L 1014.2206970502732,380.30833057994846 L1040.5404464486537,407.4777135946299"/><path class="edge section-edge-0 edge-depth-1" d="M 789.8823156669378,313.3240616074769 L 876.2615268047236,326.6971748235178 L962.6407379425095,340.0702880395587"/><path class="edge section-edge-0 edge-depth-2" d="M 857.1101560227024,209.22671416121807 L 868.5156064833518,179.17201795073458 L879.9210569440012,149.11732174025104"/><path class="edge section-edge-0 edge-depth-1" d="M 784.9308874434926,299.73557873927723 L 813.4235279620633,267.1399823972226 L841.916168480634,234.54438605516793"/><path class="edge section-edge-0 edge-depth-2" d="M 884.5545587969877,407.01518278995775 L 900.1902616485052,436.52812253826517 L915.8259645000226,466.0410622865726"/><path class="edge section-edge-0 edge-depth-1" d="M 786.7300157535752,320.4517213387407 L 826.295612965868,352.3947840275408 L865.8612101781608,384.33784671634095"/><path class="edge section-edge-0 edge-depth-2" d="M 1016.668734384903,256.7010647340698 L 1084.985639277531,275.96823212082677 L1153.3025441701589,295.23539950758374"/><path class="edge section-edge-0 edge-depth-2" d="M 1011.4570656051673,240.80172194285342 L 1033.3014612386746,212.79458954080633 L1055.1458568721819,184.7874571387593"/><path class="edge section-edge-0 edge-depth-1" d="M 789.5865585292682,307.29448353429865 L 888.6454043165526,281.82930904313025 L987.7042501038369,256.3641345519618"/><path class="edge section-edge-0 edge-depth-0" d="M 558.1638796886364,320.35929505693156 L 659.1183261712976,316.01653811239834 L760.0727726539587,311.6737811678651"/><path class="edge section-edge-1 edge-depth-2" d="M 490.88993358444355,551.0927884805543 L 496.94285158164496,581.723126954937 L502.99576957884636,612.3534654293197"/><path class="edge section-edge-1 edge-depth-1" d="M 493.6293909793985,449.2725064658334 L 491.2909306847055,485.3406463741301 L488.9524703900124,521.4087862824267"/><path class="edge section-edge-1 edge-depth-2" d="M 373.4375701203174,517.5460214315273 L 356.9521273158638,546.9713992406748 L340.46668451141016,576.3967770498225"/><path class="edge section-edge-1 edge-depth-1" d="M 481.83031409962706,442.17402995985 L 437.68446989896484,469.3818680864344 L393.5386256983026,496.5897062130188"/><path class="edge section-edge-1 edge-depth-2" d="M 642.240248141106,518.3436390658644 L 660.0683657638583,547.2161213184071 L677.8964833866106,576.0886035709498"/><path class="edge section-edge-1 edge-depth-1" d="M 507.9624261443662,441.11877954119603 L 564.4796447708823,469.9423186595915 L620.9968633973983,498.7658577779869"/><path class="edge section-edge-1 edge-depth-0" d="M 537.2668181458498,334.79021564550385 L 518.8888050124372,377.6539437902575 L500.51079187902445,420.5176719350112"/><path class="edge section-edge-2 edge-depth-1" d="M 375.1783737663592,280.2023417409477 L 354.20492256940076,254.9845353699625 L333.23147137244234,229.76672899897727"/><path class="edge section-edge-2 edge-depth-1" d="M 369.8683977510274,293.4505668215887 L 316.545708998212,299.58955550943233 L263.2230202453966,305.72854419727594"/><path class="edge section-edge-2 edge-depth-2" d="M 178.71766320626324,247.98553611761432 L 136.49249799426462,272.8234853307864 L94.26733278226602,297.66143454395853"/><path class="edge section-edge-2 edge-depth-2" d="M 177.06700589551212,236.8544581686571 L 116.922973234361,222.30962417345197 L56.778940573209866,207.76479017824684"/><path class="edge section-edge-2 edge-depth-2" d="M 186.49979165636373,226.2909974615211 L 175.51472966060317,196.22027283686305 L164.5296676648426,166.14954821220493"/><path class="edge section-edge-2 edge-depth-1" d="M 370.2737368805814,287.88017874685625 L 288.208346370027,266.05764272452103 L206.1429558594726,244.23510670218582"/><path class="edge section-edge-2 edge-depth-0" d="M 528.4274132986126,318.27853749962793 L 463.9738519712731,306.3694589238238 L399.52029064393366,294.46038034801967"/><path class="edge section-edge-3 edge-depth-2" d="M 340.11393819404043,125.71448142134003 L 330.80023483336464,91.28775317014347 L321.48653147268885,56.86102491894691"/><path class="edge section-edge-3 edge-depth-1" d="M 464.13803900822415,211.57530572090002 L 410.53191583803545,179.7163673710166 L356.92579266784674,147.8574290211331"/><path class="edge section-edge-3 edge-depth-2" d="M 631.8910969131367,150.83701022393146 L 639.2208237970864,120.02593633442419 L646.550550681036,89.21486244491692"/><path class="edge section-edge-3 edge-depth-1" d="M 491.1663939280112,214.2150775076134 L 552.7261232421149,192.33427250251214 L614.2858525562186,170.45346749741083"/><path class="edge section-edge-3 edge-depth-2" d="M 503.49781331330354,109.41817528053917 L 496.8380780906939,78.86399010791314 L490.17834286808426,48.309804935287104"/><path class="edge section-edge-3 edge-depth-1" d="M 481.4959049411913,204.91818071690653 L 491.86247087201434,171.6564247752922 L502.22903680283736,138.39466883367788"/><path class="edge section-edge-3 edge-depth-0" d="M 535.0031122798662,308.4271704593907 L 510.1051990558684,270.1213646939283 L485.2072858318707,231.8155589284658"/><path class="edge section-edge-4 edge-depth-1" d="M 660.9454516044682,245.91151854425178 L 694.9721111351129,220.89593135927143 L728.9987706657575,195.88034417429108"/><path class="edge section-edge-4 edge-depth-0" d="M 555.8892684318499,313.0404735651472 L 596.0188723571473,287.9002016923935 L636.1484762824447,262.75992981963986"/><path class="edge section-edge-5 edge-depth-1" d="M 714.1285532307041,395.0645999536734 L 745.110458500662,426.578096543302 L776.09236377062,458.09159313293065"/><path class="edge section-edge-5 edge-depth-0" d="M 557.1290370832157,326.5140608433411 L 623.395145769034,352.68605915914753 L689.6612544548523,378.85805747495397"/><path class="edge section-edge-6 edge-depth-1" d="M 320.6436480781184,373.9825097724076 L 242.4327379837233,391.1330817771507 L164.22182788932818,408.28365378189386"/><path class="edge section-edge-6 edge-depth-1" d="M 325.53707579576945,382.1613564008754 L 298.29253628130357,413.9660870096596 L271.0479967668377,445.7708176184438"/><path class="edge section-edge-6 edge-depth-0" d="M 528.5899232507028,324.4961785901334 L 439.23662265070027,345.886756741563 L349.88332205069776,367.27733489299254"/></g><g class="mindmap-nodes"><g transform="translate(509.3925826712142, 302.35004755309836)" class="mindmap-node section--1 section-root"><g><path d="M0 0 a10.135546875,10.135546875 0 0,1 16.892578125,-6.757031250000001&#10;      a23.649609374999997,23.649609374999997 1 0,1 27.028125000000003,-6.757031250000001&#10;      a16.892578125,16.892578125 1 0,1 23.649609374999997,13.514062500000001&#10;&#10;      a10.135546875,10.135546875 1 0,1 10.135546875,13.057734374999999&#10;      a13.514062500000001,13.514062500000001 1 0,1 -10.135546875,24.250078124999998&#10;&#10;      a16.892578125,10.135546875 1 0,1 -16.892578125,10.135546875&#10;      a23.649609374999997,23.649609374999997 1 0,1 -33.78515625,0&#10;      a10.135546875,10.135546875 1 0,1 -16.892578125,-10.135546875&#10;&#10;      a10.135546875,10.135546875 1 0,1 -6.757031250000001,-13.057734374999999&#10;      a13.514062500000001,13.514062500000001 1 0,1 6.757031250000001,-24.250078124999998&#10;&#10;    H0 V0 Z" class="node-bkg node-cloud" id="node-0"/></g><g transform="translate(33.78515625, 5)" text-anchor="middle" dominant-baseline="middle" alignment-baseline="middle" dy="1em"><g><rect class="background"/><text y="-10.1"><tspan dy="1.1em" y="-0.1em" x="0" class="text-outer-tspan"><tspan font-weight="normal" class="text-inner-tspan" font-style="normal">Я</tspan><tspan font-weight="normal" class="text-inner-tspan" font-style="normal"> хочу</tspan></tspan></text></g></g></g><g transform="translate(671.9846946713809, 283.5752169346378)" class="mindmap-node section-0"><g><path d="M0 49.90781097412109 v-44.90781097412109 q0,-5 5,-5 h196.1484375 q5,0 5,5 v49.90781097412109 H0 Z" class="node-bkg node-no-border" id="node-1"/><line y2="54.90781097412109" x2="206.1484375" y1="54.90781097412109" x1="0" class="node-line-0"/></g><g transform="translate(103.07421875, 5)" text-anchor="middle" dominant-baseline="middle" alignment-baseline="middle" dy="1em"><g><rect class="background"/><text y="-10.1"><tspan dy="1.1em" y="-0.1em" x="0" class="text-outer-tspan"><tspan font-weight="normal" class="text-inner-tspan" font-style="normal">Создать</tspan><tspan font-weight="normal" class="text-inner-tspan" font-style="normal"> приложение</tspan><tspan font-weight="normal" class="text-inner-tspan" font-style="normal"> для</tspan></tspan><tspan dy="1.1em" y="1em" x="0" class="text-outer-tspan"><tspan font-weight="normal" class="text-inner-tspan" font-style="normal">компьютера</tspan></tspan></text></g></g></g><g transform="translate(936.1633589380664, 323.7113209753373)" class="mindmap-node section-0"><g><path d="M0 32.3078125 v-27.307812499999997 q0,-5 5,-5 h72.6015625 q5,0 5,5 v32.3078125 H0 Z" class="node-bkg node-no-border" id="node-2"/><line y2="37.3078125" x2="82.6015625" y1="37.3078125" x1="0" class="node-line-0"/></g><g transform="translate(41.30078125, 5)" text-anchor="middle" dominant-baseline="middle" alignment-baseline="middle" dy="1em"><g><rect class="background"/><text y="-10.1"><tspan dy="1.1em" y="-0.1em" x="0" class="text-outer-tspan"><tspan font-weight="normal" class="text-inner-tspan" font-style="normal">Windows</tspan></tspan></text></g></g></g><g transform="translate(1031.9499101624801, 399.5975276845597)" class="mindmap-node section-0"><g><path d="M0 32.3078125 v-27.307812499999997 q0,-5 5,-5 h28.0546875 q5,0 5,5 v32.3078125 H0 Z" class="node-bkg node-no-border" id="node-3"/><line y2="37.3078125" x2="38.0546875" y1="37.3078125" x1="0" class="node-line-0"/></g><g transform="translate(19.02734375, 5)" text-anchor="middle" dominant-baseline="middle" alignment-baseline="middle" dy="1em"><g><rect class="background"/><text y="-10.1"><tspan dy="1.1em" y="-0.1em" x="0" class="text-outer-tspan"><tspan font-weight="normal" class="text-inner-tspan" font-style="normal">C#</tspan></tspan></text></g></g></g><g transform="translate(817.7451737527457, 204.59693612274685)" class="mindmap-node section-0"><g><path d="M0 32.3078125 v-27.307812499999997 q0,-5 5,-5 h58.0859375 q5,0 5,5 v32.3078125 H0 Z" class="node-bkg node-no-border" id="node-4"/><line y2="37.3078125" x2="68.0859375" y1="37.3078125" x1="0" class="node-line-0"/></g><g transform="translate(34.04296875, 5)" text-anchor="middle" dominant-baseline="middle" alignment-baseline="middle" dy="1em"><g><rect class="background"/><text y="-10.1"><tspan dy="1.1em" y="-0.1em" x="0" class="text-outer-tspan"><tspan font-weight="normal" class="text-inner-tspan" font-style="normal">macOS</tspan></tspan></text></g></g></g><g transform="translate(857.0321329639579, 116.43928727872225)" class="mindmap-node section-0"><g><path d="M0 32.3078125 v-27.307812499999997 q0,-5 5,-5 h46.421875 q5,0 5,5 v32.3078125 H0 Z" class="node-bkg node-no-border" id="node-5"/><line y2="37.3078125" x2="56.421875" y1="37.3078125" x1="0" class="node-line-0"/></g><g transform="translate(28.2109375, 5)" text-anchor="middle" dominant-baseline="middle" alignment-baseline="middle" dy="1em"><g><rect class="background"/><text y="-10.1"><tspan dy="1.1em" y="-0.1em" x="0" class="text-outer-tspan"><tspan font-weight="normal" class="text-inner-tspan" font-style="normal">Swift</tspan></tspan></text></g></g></g><g transform="translate(848.4502812603552, 375.10653938338334)" class="mindmap-node section-0"><g><path d="M0 32.3078125 v-27.307812499999997 q0,-5 5,-5 h48.1640625 q5,0 5,5 v32.3078125 H0 Z" class="node-bkg node-no-border" id="node-6"/><line y2="37.3078125" x2="58.1640625" y1="37.3078125" x1="0" class="node-line-0"/></g><g transform="translate(29.08203125, 5)" text-anchor="middle" dominant-baseline="middle" alignment-baseline="middle" dy="1em"><g><rect class="background"/><text y="-10.1"><tspan dy="1.1em" y="-0.1em" x="0" class="text-outer-tspan"><tspan font-weight="normal" class="text-inner-tspan" font-style="normal">Linux</tspan></tspan></text></g></g></g><g transform="translate(899.6724295366552, 460.64189319314704)" class="mindmap-node section-0"><g><path d="M0 32.3078125 v-27.307812499999997 q0,-5 5,-5 h36.3515625 q5,0 5,5 v32.3078125 H0 Z" class="node-bkg node-no-border" id="node-7"/><line y2="37.3078125" x2="46.3515625" y1="37.3078125" x1="0" class="node-line-0"/></g><g transform="translate(23.17578125, 5)" text-anchor="middle" dominant-baseline="middle" alignment-baseline="middle" dy="1em"><g><rect class="background"/><text y="-10.1"><tspan dy="1.1em" y="-0.1em" x="0" class="text-outer-tspan"><tspan font-weight="normal" class="text-inner-tspan" font-style="normal">C++</tspan></tspan></text></g></g></g><g transform="translate(935.8295514617242, 233.97558941456208)" class="mindmap-node section-0"><g><path d="M0 32.3078125 v-27.307812499999997 q0,-5 5,-5 h122.8046875 q5,0 5,5 v32.3078125 H0 Z" class="node-bkg node-no-border" id="node-8"/><line y2="37.3078125" x2="132.8046875" y1="37.3078125" x1="0" class="node-line-0"/></g><g transform="translate(66.40234375, 5)" text-anchor="middle" dominant-baseline="middle" alignment-baseline="middle" dy="1em"><g><rect class="background"/><text y="-10.1"><tspan dy="1.1em" y="-0.1em" x="0" class="text-outer-tspan"><tspan font-weight="normal" class="text-inner-tspan" font-style="normal">Универсальное</tspan></tspan></text></g></g></g><g transform="translate(1120.7745395933375, 280.6530623270915)" class="mindmap-node section-0"><g><path d="M0 32.3078125 v-27.307812499999997 q0,-5 5,-5 h83.9296875 q5,0 5,5 v32.3078125 H0 Z" class="node-bkg node-no-border" id="node-9"/><line y2="37.3078125" x2="93.9296875" y1="37.3078125" x1="0" class="node-line-0"/></g><g transform="translate(46.96484375, 5)" text-anchor="middle" dominant-baseline="middle" alignment-baseline="middle" dy="1em"><g><rect class="background"/><text y="-10.1"><tspan dy="1.1em" y="-0.1em" x="0" class="text-outer-tspan"><tspan font-weight="normal" class="text-inner-tspan" font-style="normal">JavaScript</tspan></tspan></text></g></g></g><g transform="translate(1041.195246015625, 154.30577716705062)" class="mindmap-node section-0"><g><path d="M0 32.3078125 v-27.307812499999997 q0,-5 5,-5 h36.3515625 q5,0 5,5 v32.3078125 H0 Z" class="node-bkg node-no-border" id="node-10"/><line y2="37.3078125" x2="46.3515625" y1="37.3078125" x1="0" class="node-line-0"/></g><g transform="translate(23.17578125, 5)" text-anchor="middle" dominant-baseline="middle" alignment-baseline="middle" dy="1em"><g><rect class="background"/><text y="-10.1"><tspan dy="1.1em" y="-0.1em" x="0" class="text-outer-tspan"><tspan font-weight="normal" class="text-inner-tspan" font-style="normal">C++</tspan></tspan></text></g></g></g><g transform="translate(412.7170586036601, 406.8500282903562)" class="mindmap-node section-1"><g><path d="M0 49.90781097412109 v-44.90781097412109 q0,-5 5,-5 h153.765625 q5,0 5,5 v49.90781097412109 H0 Z" class="node-bkg node-no-border" id="node-11"/><line y2="54.90781097412109" x2="163.765625" y1="54.90781097412109" x1="0" class="node-line-1"/></g><g transform="translate(81.8828125, 5)" text-anchor="middle" dominant-baseline="middle" alignment-baseline="middle" dy="1em"><g><rect class="background"/><text y="-10.1"><tspan dy="1.1em" y="-0.1em" x="0" class="text-outer-tspan"><tspan font-weight="normal" class="text-inner-tspan" font-style="normal">Создать</tspan><tspan font-weight="normal" class="text-inner-tspan" font-style="normal"> мобильное</tspan></tspan><tspan dy="1.1em" y="1em" x="0" class="text-outer-tspan"><tspan font-weight="normal" class="text-inner-tspan" font-style="normal">приложение</tspan></tspan></text></g></g></g><g transform="translate(450.2944902657508, 517.7234527208434)" class="mindmap-node section-1"><g><path d="M0 32.3078125 v-27.307812499999997 q0,-5 5,-5 h65.375 q5,0 5,5 v32.3078125 H0 Z" class="node-bkg node-no-border" id="node-12"/><line y2="37.3078125" x2="75.375" y1="37.3078125" x1="0" class="node-line-1"/></g><g transform="translate(37.6875, 5)" text-anchor="middle" dominant-baseline="middle" alignment-baseline="middle" dy="1em"><g><rect class="background"/><text y="-10.1"><tspan dy="1.1em" y="-0.1em" x="0" class="text-outer-tspan"><tspan font-weight="normal" class="text-inner-tspan" font-style="normal">Android</tspan></tspan></text></g></g></g><g transform="translate(475.0716816475391, 608.4149886890307)" class="mindmap-node section-1"><g><path d="M0 32.3078125 v-27.307812499999997 q0,-5 5,-5 h51.6640625 q5,0 5,5 v32.3078125 H0 Z" class="node-bkg node-no-border" id="node-13"/><line y2="37.3078125" x2="61.6640625" y1="37.3078125" x1="0" class="node-line-1"/></g><g transform="translate(30.83203125, 5)" text-anchor="middle" dominant-baseline="middle" alignment-baseline="middle" dy="1em"><g><rect class="background"/><text y="-10.1"><tspan dy="1.1em" y="-0.1em" x="0" class="text-outer-tspan"><tspan font-weight="normal" class="text-inner-tspan" font-style="normal">Kotlin</tspan></tspan></text></g></g></g><g transform="translate(359.24953744426955, 485.8058961454521)" class="mindmap-node section-1"><g><path d="M0 32.3078125 v-27.307812499999997 q0,-5 5,-5 h33.0390625 q5,0 5,5 v32.3078125 H0 Z" class="node-bkg node-no-border" id="node-14"/><line y2="37.3078125" x2="43.0390625" y1="37.3078125" x1="0" class="node-line-1"/></g><g transform="translate(21.51953125, 5)" text-anchor="middle" dominant-baseline="middle" alignment-baseline="middle" dy="1em"><g><rect class="background"/><text y="-10.1"><tspan dy="1.1em" y="-0.1em" x="0" class="text-outer-tspan"><tspan font-weight="normal" class="text-inner-tspan" font-style="normal">iOS</tspan></tspan></text></g></g></g><g transform="translate(304.924248437458, 570.8290898358978)" class="mindmap-node section-1"><g><path d="M0 32.3078125 v-27.307812499999997 q0,-5 5,-5 h46.421875 q5,0 5,5 v32.3078125 H0 Z" class="node-bkg node-no-border" id="node-15"/><line y2="37.3078125" x2="56.421875" y1="37.3078125" x1="0" class="node-line-1"/></g><g transform="translate(28.2109375, 5)" text-anchor="middle" dominant-baseline="middle" alignment-baseline="middle" dy="1em"><g><rect class="background"/><text y="-10.1"><tspan dy="1.1em" y="-0.1em" x="0" class="text-outer-tspan"><tspan font-weight="normal" class="text-inner-tspan" font-style="normal">Swift</tspan></tspan></text></g></g></g><g transform="translate(567.9570746881044, 486.92679729176626)" class="mindmap-node section-1"><g><path d="M0 32.3078125 v-27.307812499999997 q0,-5 5,-5 h122.8046875 q5,0 5,5 v32.3078125 H0 Z" class="node-bkg node-no-border" id="node-16"/><line y2="37.3078125" x2="132.8046875" y1="37.3078125" x1="0" class="node-line-1"/></g><g transform="translate(66.40234375, 5)" text-anchor="middle" dominant-baseline="middle" alignment-baseline="middle" dy="1em"><g><rect class="background"/><text y="-10.1"><tspan dy="1.1em" y="-0.1em" x="0" class="text-outer-tspan"><tspan font-weight="normal" class="text-inner-tspan" font-style="normal">Универсальное</tspan></tspan></text></g></g></g><g transform="translate(638.8124693396122, 570.197632845048)" class="mindmap-node section-1"><g><path d="M0 32.3078125 v-27.307812499999997 q0,-5 5,-5 h83.9296875 q5,0 5,5 v32.3078125 H0 Z" class="node-bkg node-no-border" id="node-17"/><line y2="37.3078125" x2="93.9296875" y1="37.3078125" x1="0" class="node-line-1"/></g><g transform="translate(46.96484375, 5)" text-anchor="middle" dominant-baseline="middle" alignment-baseline="middle" dy="1em"><g><rect class="background"/><text y="-10.1"><tspan dy="1.1em" y="-0.1em" x="0" class="text-outer-tspan"><tspan font-weight="normal" class="text-inner-tspan" font-style="normal">JavaScript</tspan></tspan></text></g></g></g><g transform="translate(327.03559002133204, 273.0810577945493)" class="mindmap-node section-2"><g><path d="M0 32.3078125 v-27.307812499999997 q0,-5 5,-5 h105.46875 q5,0 5,5 v32.3078125 H0 Z" class="node-bkg node-no-border" id="node-18"/><line y2="37.3078125" x2="115.46875" y1="37.3078125" x1="0" class="node-line-2"/></g><g transform="translate(57.734375, 5)" text-anchor="middle" dominant-baseline="middle" alignment-baseline="middle" dy="1em"><g><rect class="background"/><text y="-10.1"><tspan dy="1.1em" y="-0.1em" x="0" class="text-outer-tspan"><tspan font-weight="normal" class="text-inner-tspan" font-style="normal">Создать</tspan><tspan font-weight="normal" class="text-inner-tspan" font-style="normal"> сайт</tspan></tspan></text></g></g></g><g transform="translate(294.0344113674695, 199.58020044537574)" class="mindmap-node section-2"><g><path d="M0 32.3078125 v-27.307812499999997 q0,-5 5,-5 h49.2109375 q5,0 5,5 v32.3078125 H0 Z" class="node-bkg node-no-border" id="node-19"/><line y2="37.3078125" x2="59.2109375" y1="37.3078125" x1="0" class="node-line-2"/></g><g transform="translate(29.60546875, 5)" text-anchor="middle" dominant-baseline="middle" alignment-baseline="middle" dy="1em"><g><rect class="background"/><text y="-10.1"><tspan dy="1.1em" y="-0.1em" x="0" class="text-outer-tspan"><tspan font-weight="normal" class="text-inner-tspan" font-style="normal">HTML</tspan></tspan></text></g></g></g><g transform="translate(225.84098422509192, 288.7902407243154)" class="mindmap-node section-2"><g><path d="M0 32.3078125 v-27.307812499999997 q0,-5 5,-5 h34.9609375 q5,0 5,5 v32.3078125 H0 Z" class="node-bkg node-no-border" id="node-20"/><line y2="37.3078125" x2="44.9609375" y1="37.3078125" x1="0" class="node-line-2"/></g><g transform="translate(22.48046875, 5)" text-anchor="middle" dominant-baseline="middle" alignment-baseline="middle" dy="1em"><g><rect class="background"/><text y="-10.1"><tspan dy="1.1em" y="-0.1em" x="0" class="text-outer-tspan"><tspan font-weight="normal" class="text-inner-tspan" font-style="normal">CSS</tspan></tspan></text></g></g></g><g transform="translate(124.25219646872199, 221.72641515449283)" class="mindmap-node section-2"><g><path d="M0 32.3078125 v-27.307812499999997 q0,-5 5,-5 h124.7890625 q5,0 5,5 v32.3078125 H0 Z" class="node-bkg node-no-border" id="node-21"/><line y2="37.3078125" x2="134.7890625" y1="37.3078125" x1="0" class="node-line-2"/></g><g transform="translate(67.39453125, 5)" text-anchor="middle" dominant-baseline="middle" alignment-baseline="middle" dy="1em"><g><rect class="background"/><text y="-10.1"><tspan dy="1.1em" y="-0.1em" x="0" class="text-outer-tspan"><tspan font-weight="normal" class="text-inner-tspan" font-style="normal">Интерактивный</tspan></tspan></text></g></g></g><g transform="translate(34.37342451980726, 286.61274300708004)" class="mindmap-node section-2"><g><path d="M0 32.3078125 v-27.307812499999997 q0,-5 5,-5 h83.9296875 q5,0 5,5 v32.3078125 H0 Z" class="node-bkg node-no-border" id="node-22"/><line y2="37.3078125" x2="93.9296875" y1="37.3078125" x1="0" class="node-line-2"/></g><g transform="translate(46.96484375, 5)" text-anchor="middle" dominant-baseline="middle" alignment-baseline="middle" dy="1em"><g><rect class="background"/><text y="-10.1"><tspan dy="1.1em" y="-0.1em" x="0" class="text-outer-tspan"><tspan font-weight="normal" class="text-inner-tspan" font-style="normal">JavaScript</tspan></tspan></text></g></g></g><g transform="translate(15, 185.5850206924111)" class="mindmap-node section-2"><g><path d="M0 32.3078125 v-27.307812499999997 q0,-5 5,-5 h44.3984375 q5,0 5,5 v32.3078125 H0 Z" class="node-bkg node-no-border" id="node-23"/><line y2="37.3078125" x2="54.3984375" y1="37.3078125" x1="0" class="node-line-2"/></g><g transform="translate(27.19921875, 5)" text-anchor="middle" dominant-baseline="middle" alignment-baseline="middle" dy="1em"><g><rect class="background"/><text y="-10.1"><tspan dy="1.1em" y="-0.1em" x="0" class="text-outer-tspan"><tspan font-weight="normal" class="text-inner-tspan" font-style="normal">Ruby</tspan></tspan></text></g></g></g><g transform="translate(124.76945035248434, 133.4063180192332)" class="mindmap-node section-2"><g><path d="M0 32.3078125 v-27.307812499999997 q0,-5 5,-5 h59.2265625 q5,0 5,5 v32.3078125 H0 Z" class="node-bkg node-no-border" id="node-24"/><line y2="37.3078125" x2="69.2265625" y1="37.3078125" x1="0" class="node-line-2"/></g><g transform="translate(34.61328125, 5)" text-anchor="middle" dominant-baseline="middle" alignment-baseline="middle" dy="1em"><g><rect class="background"/><text y="-10.1"><tspan dy="1.1em" y="-0.1em" x="0" class="text-outer-tspan"><tspan font-weight="normal" class="text-inner-tspan" font-style="normal">Python</tspan></tspan></text></g></g></g><g transform="translate(419.1068779405226, 200.58486933475814)" class="mindmap-node section-3"><g><path d="M0 32.3078125 v-27.307812499999997 q0,-5 5,-5 h105.8515625 q5,0 5,5 v32.3078125 H0 Z" class="node-bkg node-no-border" id="node-25"/><line y2="37.3078125" x2="115.8515625" y1="37.3078125" x1="0" class="node-line-3"/></g><g transform="translate(57.92578125, 5)" text-anchor="middle" dominant-baseline="middle" alignment-baseline="middle" dy="1em"><g><rect class="background"/><text y="-10.1"><tspan dy="1.1em" y="-0.1em" x="0" class="text-outer-tspan"><tspan font-weight="normal" class="text-inner-tspan" font-style="normal">Создать</tspan><tspan font-weight="normal" class="text-inner-tspan" font-style="normal"> игру</tspan></tspan></text></g></g></g><g transform="translate(256.64054748554827, 112.74005367021442)" class="mindmap-node section-3"><g><path d="M0 49.90781097412109 v-44.90781097412109 q0,-5 5,-5 h164.78125 q5,0 5,5 v49.90781097412109 H0 Z" class="node-bkg node-no-border" id="node-26"/><line y2="54.90781097412109" x2="174.78125" y1="54.90781097412109" x1="0" class="node-line-3"/></g><g transform="translate(87.390625, 5)" text-anchor="middle" dominant-baseline="middle" alignment-baseline="middle" dy="1em"><g><rect class="background"/><text y="-10.1"><tspan dy="1.1em" y="-0.1em" x="0" class="text-outer-tspan"><tspan font-weight="normal" class="text-inner-tspan" font-style="normal">С</tspan><tspan font-weight="normal" class="text-inner-tspan" font-style="normal"> крутой</tspan><tspan font-weight="normal" class="text-inner-tspan" font-style="normal"> графикой</tspan><tspan font-weight="normal" class="text-inner-tspan" font-style="normal"> и</tspan></tspan><tspan dy="1.1em" y="1em" x="0" class="text-outer-tspan"><tspan font-weight="normal" class="text-inner-tspan" font-style="normal">физикой</tspan></tspan></text></g></g></g><g transform="translate(294.393515931181, 23.72764093301197)" class="mindmap-node section-3"><g><path d="M0 32.3078125 v-27.307812499999997 q0,-5 5,-5 h36.3515625 q5,0 5,5 v32.3078125 H0 Z" class="node-bkg node-no-border" id="node-27"/><line y2="37.3078125" x2="46.3515625" y1="37.3078125" x1="0" class="node-line-3"/></g><g transform="translate(23.17578125, 5)" text-anchor="middle" dominant-baseline="middle" alignment-baseline="middle" dy="1em"><g><rect class="background"/><text y="-10.1"><tspan dy="1.1em" y="-0.1em" x="0" class="text-outer-tspan"><tspan font-weight="normal" class="text-inner-tspan" font-style="normal">C++</tspan></tspan></text></g></g></g><g transform="translate(585.3727122937072, 146.77586317026606)" class="mindmap-node section-3"><g><path d="M0 32.3078125 v-27.307812499999997 q0,-5 5,-5 h76.09375 q5,0 5,5 v32.3078125 H0 Z" class="node-bkg node-no-border" id="node-28"/><line y2="37.3078125" x2="86.09375" y1="37.3078125" x1="0" class="node-line-3"/></g><g transform="translate(43.046875, 5)" text-anchor="middle" dominant-baseline="middle" alignment-baseline="middle" dy="1em"><g><rect class="background"/><text y="-10.1"><tspan dy="1.1em" y="-0.1em" x="0" class="text-outer-tspan"><tspan font-weight="normal" class="text-inner-tspan" font-style="normal">Попроще</tspan></tspan></text></g></g></g><g transform="translate(630.9947165504656, 55.96819699858231)" class="mindmap-node section-3"><g><path d="M0 32.3078125 v-27.307812499999997 q0,-5 5,-5 h28.0546875 q5,0 5,5 v32.3078125 H0 Z" class="node-bkg node-no-border" id="node-29"/><line y2="37.3078125" x2="38.0546875" y1="37.3078125" x1="0" class="node-line-3"/></g><g transform="translate(19.02734375, 5)" text-anchor="middle" dominant-baseline="middle" alignment-baseline="middle" dy="1em"><g><rect class="background"/><text y="-10.1"><tspan dy="1.1em" y="-0.1em" x="0" class="text-outer-tspan"><tspan font-weight="normal" class="text-inner-tspan" font-style="normal">C#</tspan></tspan></text></g></g></g><g transform="translate(456.31728255350606, 105.42016771582627)" class="mindmap-node section-3"><g><path d="M0 32.3078125 v-27.307812499999997 q0,-5 5,-5 h90.75 q5,0 5,5 v32.3078125 H0 Z" class="node-bkg node-no-border" id="node-30"/><line y2="37.3078125" x2="100.75" y1="37.3078125" x1="0" class="node-line-3"/></g><g transform="translate(50.375, 5)" text-anchor="middle" dominant-baseline="middle" alignment-baseline="middle" dy="1em"><g><rect class="background"/><text y="-10.1"><tspan dy="1.1em" y="-0.1em" x="0" class="text-outer-tspan"><tspan font-weight="normal" class="text-inner-tspan" font-style="normal">Для</tspan><tspan font-weight="normal" class="text-inner-tspan" font-style="normal"> Roblox</tspan></tspan></text></g></g></g><g transform="translate(464.35887362788174, 15)" class="mindmap-node section-3"><g><path d="M0 32.3078125 v-27.307812499999997 q0,-5 5,-5 h35.25 q5,0 5,5 v32.3078125 H0 Z" class="node-bkg node-no-border" id="node-31"/><line y2="37.3078125" x2="45.25" y1="37.3078125" x1="0" class="node-line-3"/></g><g transform="translate(22.625, 5)" text-anchor="middle" dominant-baseline="middle" alignment-baseline="middle" dy="1em"><g><rect class="background"/><text y="-10.1"><tspan dy="1.1em" y="-0.1em" x="0" class="text-outer-tspan"><tspan font-weight="normal" class="text-inner-tspan" font-style="normal">Lua</tspan></tspan></text></g></g></g><g transform="translate(544.7779745430804, 236.14254333168873)" class="mindmap-node section-4"><g><path d="M0 32.3078125 v-27.307812499999997 q0,-5 5,-5 h198.1640625 q5,0 5,5 v32.3078125 H0 Z" class="node-bkg node-no-border" id="node-32"/><line y2="37.3078125" x2="208.1640625" y1="37.3078125" x1="0" class="node-line-4"/></g><g transform="translate(104.08203125, 5)" text-anchor="middle" dominant-baseline="middle" alignment-baseline="middle" dy="1em"><g><rect class="background"/><text y="-10.1"><tspan dy="1.1em" y="-0.1em" x="0" class="text-outer-tspan"><tspan font-weight="normal" class="text-inner-tspan" font-style="normal">Побеждать</tspan><tspan font-weight="normal" class="text-inner-tspan" font-style="normal"> в</tspan><tspan font-weight="normal" class="text-inner-tspan" font-style="normal"> олимпиадах</tspan></tspan></text></g></g></g><g transform="translate(717.9084352271453, 168.34150688685412)" class="mindmap-node section-4"><g><path d="M0 32.3078125 v-27.307812499999997 q0,-5 5,-5 h36.3515625 q5,0 5,5 v32.3078125 H0 Z" class="node-bkg node-no-border" id="node-33"/><line y2="37.3078125" x2="46.3515625" y1="37.3078125" x1="0" class="node-line-4"/></g><g transform="translate(23.17578125, 5)" text-anchor="middle" dominant-baseline="middle" alignment-baseline="middle" dy="1em"><g><rect class="background"/><text y="-10.1"><tspan dy="1.1em" y="-0.1em" x="0" class="text-outer-tspan"><tspan font-weight="normal" class="text-inner-tspan" font-style="normal">C++</tspan></tspan></text></g></g></g><g transform="translate(595.5188026168538, 356.9142590281362)" class="mindmap-node section-5"><g><path d="M0 49.90781097412109 v-44.90781097412109 q0,-5 5,-5 h206.1875 q5,0 5,5 v49.90781097412109 H0 Z" class="node-bkg node-no-border" id="node-34"/><line y2="54.90781097412109" x2="216.1875" y1="54.90781097412109" x1="0" class="node-line-5"/></g><g transform="translate(108.09375, 5)" text-anchor="middle" dominant-baseline="middle" alignment-baseline="middle" dy="1em"><g><rect class="background"/><text y="-10.1"><tspan dy="1.1em" y="-0.1em" x="0" class="text-outer-tspan"><tspan font-weight="normal" class="text-inner-tspan" font-style="normal">Работать</tspan><tspan font-weight="normal" class="text-inner-tspan" font-style="normal"> с</tspan><tspan font-weight="normal" class="text-inner-tspan" font-style="normal"> искусственным</tspan></tspan><tspan dy="1.1em" y="1em" x="0" class="text-outer-tspan"><tspan font-weight="normal" class="text-inner-tspan" font-style="normal">интеллектом</tspan></tspan></text></g></g></g><g transform="translate(751.9950831344703, 450.13412232140735)" class="mindmap-node section-5"><g><path d="M0 32.3078125 v-27.307812499999997 q0,-5 5,-5 h59.2265625 q5,0 5,5 v32.3078125 H0 Z" class="node-bkg node-no-border" id="node-35"/><line y2="37.3078125" x2="69.2265625" y1="37.3078125" x1="0" class="node-line-5"/></g><g transform="translate(34.61328125, 5)" text-anchor="middle" dominant-baseline="middle" alignment-baseline="middle" dy="1em"><g><rect class="background"/><text y="-10.1"><tspan dy="1.1em" y="-0.1em" x="0" class="text-outer-tspan"><tspan font-weight="normal" class="text-inner-tspan" font-style="normal">Python</tspan></tspan></text></g></g></g><g transform="translate(227.36972513018634, 343.3156541929671)" class="mindmap-node section-6"><g><path d="M0 49.90781097412109 v-44.90781097412109 q0,-5 5,-5 h205.8515625 q5,0 5,5 v49.90781097412109 H0 Z" class="node-bkg node-no-border" id="node-36"/><line y2="54.90781097412109" x2="215.8515625" y1="54.90781097412109" x1="0" class="node-line-6"/></g><g transform="translate(107.92578125, 5)" text-anchor="middle" dominant-baseline="middle" alignment-baseline="middle" dy="1em"><g><rect class="background"/><text y="-10.1"><tspan dy="1.1em" y="-0.1em" x="0" class="text-outer-tspan"><tspan font-weight="normal" class="text-inner-tspan" font-style="normal">Программировать</tspan><tspan font-weight="normal" class="text-inner-tspan" font-style="normal"> роботов</tspan></tspan><tspan dy="1.1em" y="1em" x="0" class="text-outer-tspan"><tspan font-weight="normal" class="text-inner-tspan" font-style="normal">и</tspan><tspan font-weight="normal" class="text-inner-tspan" font-style="normal"> "умную"</tspan><tspan font-weight="normal" class="text-inner-tspan" font-style="normal"> электронику</tspan></tspan></text></g></g></g><g transform="translate(126.39418833726029, 392.84269762427385)" class="mindmap-node section-6"><g><path d="M0 32.3078125 v-27.307812499999997 q0,-5 5,-5 h36.3515625 q5,0 5,5 v32.3078125 H0 Z" class="node-bkg node-no-border" id="node-37"/><line y2="37.3078125" x2="46.3515625" y1="37.3078125" x1="0" class="node-line-6"/></g><g transform="translate(23.17578125, 5)" text-anchor="middle" dominant-baseline="middle" alignment-baseline="middle" dy="1em"><g><rect class="background"/><text y="-10.1"><tspan dy="1.1em" y="-0.1em" x="0" class="text-outer-tspan"><tspan font-weight="normal" class="text-inner-tspan" font-style="normal">C++</tspan></tspan></text></g></g></g><g transform="translate(226.6762849324208, 438.5087080892916)" class="mindmap-node section-6"><g><path d="M0 32.3078125 v-27.307812499999997 q0,-5 5,-5 h59.2265625 q5,0 5,5 v32.3078125 H0 Z" class="node-bkg node-no-border" id="node-38"/><line y2="37.3078125" x2="69.2265625" y1="37.3078125" x1="0" class="node-line-6"/></g><g transform="translate(34.61328125, 5)" text-anchor="middle" dominant-baseline="middle" alignment-baseline="middle" dy="1em"><g><rect class="background"/><text y="-10.1"><tspan dy="1.1em" y="-0.1em" x="0" class="text-outer-tspan"><tspan font-weight="normal" class="text-inner-tspan" font-style="normal">Python</tspan></tspan></text></g></g></g></g></svg>